<?xml version="1.0" encoding="utf-8"?>
<!-- Generator: Adobe Illustrator 21.0.0, SVG Export Plug-In . SVG Version: 6.00 Build 0)  -->
<svg version="1.1" id="Homie_logo" xmlns="http://www.w3.org/2000/svg" xmlns:xlink="http://www.w3.org/1999/xlink" x="0px" y="0px"
	 viewBox="0 0 183.7 38.8" style="enable-background:new 0 0 183.7 38.8;" xml:space="preserve">
<style type="text/css">
	.st0{fill:#3E494C;}
	.st1{fill:#00DEC0;}
</style>
<g>
	<g>
		<path class="st0" d="M68.8,14.2c-3.1,0-5.7,1.4-7.1,3.6h-0.4V3.9c0-0.4-0.3-0.7-0.7-0.7h-5c-0.4,0-0.7,0.3-0.7,0.7v33.6
			c0,0.4,0.3,0.7,0.7,0.7h5c0.4,0,0.7-0.3,0.7-0.7V23.8c0-2.9,1.9-4.9,4.7-4.9c2.4,0,3.9,1.6,3.9,4v14.7c0,0.4,0.3,0.7,0.7,0.7h5
			c0.4,0,0.7-0.3,0.7-0.7V21.9C76.4,17.2,73.4,14.2,68.8,14.2z"/>
		<path class="st0" d="M92.8,14.2c-3.7,0-6.7,1.2-8.8,3.5c-1.8,2-2.8,5-2.8,8.8c0,7.7,4.3,12.2,11.6,12.2c3.7,0,6.7-1.2,8.8-3.5
			c1.8-2,2.8-5,2.8-8.8C104.4,18.8,100.1,14.2,92.8,14.2z M92.8,34.2c-3.2,0-5.1-2.9-5.1-7.7c0-4.9,1.9-7.7,5.2-7.7
			c3.2,0,5.1,2.9,5.1,7.7C98,31.4,96.1,34.2,92.8,34.2z"/>
		<path class="st0" d="M136.9,14.2c-3.8,0-6.1,1.8-7.4,4.1l-0.4-0.7c-1.2-2.2-3.5-3.5-6.4-3.5c-3.2,0-5.7,1.4-7.2,3.8l-0.3,0
			l-0.1-2.6c0-0.4-0.3-0.7-0.7-0.7h-4.5c-0.4,0-0.7,0.3-0.7,0.7v22.2c0,0.4,0.3,0.7,0.7,0.7h5c0.4,0,0.7-0.3,0.7-0.7v-14
			c0-2.8,1.8-4.6,4.5-4.6c2.3,0,3.7,1.4,3.7,3.7v15c0,0.4,0.3,0.7,0.7,0.7h5c0.4,0,0.7-0.3,0.7-0.7v-14c0-2.8,1.8-4.6,4.4-4.6
			c2.3,0,3.7,1.4,3.7,3.7v15c0,0.4,0.3,0.7,0.7,0.7h5c0.4,0,0.7-0.3,0.7-0.7V21.8C144.7,17.2,141.6,14.2,136.9,14.2z"/>
		<path class="st0" d="M155.8,14.7h-5c-0.4,0-0.7,0.3-0.7,0.7v22.2c0,0.4,0.3,0.7,0.7,0.7h5c0.4,0,0.7-0.3,0.7-0.7V15.4
			C156.5,15,156.2,14.7,155.8,14.7z"/>
		<path class="st0" d="M155.8,2.9h-5c-0.4,0-0.7,0.3-0.7,0.7v4.8c0,0.4,0.3,0.7,0.7,0.7h5c0.4,0,0.7-0.3,0.7-0.7V3.6
			C156.5,3.2,156.2,2.9,155.8,2.9z"/>
		<path class="st0" d="M183.7,25.8c0-3.4-0.9-6.2-2.7-8.3c-1.9-2.2-4.8-3.3-8.3-3.3c-7.1,0-11.5,4.7-11.5,12.4c0,3.7,1,6.7,3,8.9
			c2.1,2.2,5.2,3.4,9.1,3.4c3.8,0,6.6-1.1,8.8-3.2c0.1-0.1,0.2-0.3,0.2-0.6c0-0.2-0.1-0.4-0.2-0.5l-2.7-2.4c-0.3-0.2-0.7-0.2-0.9,0
			c-1.3,1.4-3,2.2-5,2.2c-3.3,0-5.2-1.5-5.8-4.7c0,0,0-0.1,0-0.2l15.1-1.9c0,0,0.8,0,1-0.7c0,0,0-0.1,0-0.1L183.7,25.8z M167.5,24.8
			l0-0.7c0.4-3.6,2.1-5.4,5.1-5.4c2.4,0,3.9,1.1,4.5,3.5c0.1,0.3,0.2,0.6,0.2,1c0,0.4,0.1,0.7,0.1,1l-10.1,1.3
			C167.5,25.2,167.5,25,167.5,24.8L167.5,24.8z"/>
	</g>
	<g>
		<path class="st1" d="M27,33H12.8c-1.1,0-2.4,1.2-2.4,2.6c0,1.4,1.3,2.6,2.4,2.6H27c1.1,0,2.4-1.2,2.4-2.6C29.5,34.3,28.1,33,27,33
			z"/>
		<path class="st1" d="M38,15.2L25.9,2.5c-1.7-1.6-3.8-2.5-6-2.5c0,0,0,0-0.1,0c-2.2,0-4.3,0.9-6,2.5L1.8,15.2
			c-1.7,1.7-2.3,4.1-1.4,6.3c0.9,2.1,3,3.6,5.4,3.6H34c2.4,0,4.5-1.4,5.4-3.6C40.3,19.4,39.7,16.9,38,15.2z M34.7,19.6
			C34.6,19.9,34.3,20,34,20H5.8c-0.3,0-0.6-0.1-0.7-0.4c-0.1-0.2-0.1-0.5,0.2-0.8L17.5,6.2c0.6-0.6,1.5-1,2.4-1h0.1
			c0.9,0,1.8,0.3,2.4,1l12.1,12.7C34.7,19.2,34.7,19.5,34.7,19.6z"/>
	</g>
</g>
</svg>
