<svg class="znav-logo-full" xmlns="http://www.w3.org/2000/svg" width="152px" height="64px" viewBox="492 0 1440 400"
     fill="#006aff">
    <path d="M1460.4,148.6h77.8l22.5,73.7c7.5,24.4,20.1,70.2,20.1,70.2c0.2,0.6,1,0.5,1.1,0c0,0,13-46.7,20.4-70.2 l23.6-73.7h57.4l23.2,73.7c7.8,25.2,20,70.2,20,70.2c0.2,0.6,0.9,0.6,1.2,0c0,0,12.6-45.5,20.1-70.2l22.5-73.7h72.3l-78.2,243.5 h-71.1l-19.4-61.2c-7.4-24-20.5-70.6-20.5-70.6c-0.2-0.6-1-0.6-1.1,0c0,0-13.1,45.7-21,70.2l-19.8,61.6l-72.4,0L1460.4,148.6z"></path>
    <rect x="936.8" y="19.9" width="78.7" height="372.2"></rect>
    <rect x="1073.8" y="19.9" width="78.7" height="372.2"></rect>
    <path d="M1380.7,271.2c0-36.2-25.9-60.9-56.5-60.9c-31.3,0-57.2,24.7-57.2,60.9c0,36.5,25.9,60.9,57.2,60.9 C1354.8,332.1,1380.7,307.7,1380.7,271.2 M1191.5,271.2c0-74,59.7-128.8,132.7-128.8c72.3,0,132,54.8,132,128.8 c0,74.2-59.7,129.1-132,129.1C1251.2,400.2,1191.5,345.4,1191.5,271.2"></path>
    <path d="M481.5,54.4v71.8l139.1,0c0.6,0,0.8,0.5,0.5,1L481.4,364.5c-3.4,6.2-4.2,7.5-4.2,13.7v14h271l0-71.6H597.7 c-0.6,0-0.8-0.6-0.5-1L738.5,79c1.1-2.3,2.3-4,2.3-9.6l0-15H481.5z"></path>
    <path d="M798.4,148.6h78.7v243.5h-78.7V148.6z M837.7,26.6c24.5,0,44.8,19.8,44.8,44.2c0,24.4-20.3,44.2-44.8,44.2 c-24.5,0-44.8-19.8-44.8-44.2C792.9,46.4,813.2,26.6,837.7,26.6"></path>
    <path d="M1895.2,113.9c0-6.9-4.9-11.9-11.7-11.9H1871v34h5.6v-10.2h5.5l6.2,10.2h6.4l-6.7-11 C1892.3,123.3,1895.2,119.2,1895.2,113.9z M1883.2,120.8h-6.6V107h6.6c3.7,0,6.4,2.9,6.4,6.9 C1889.6,117.9,1886.9,120.8,1883.2,120.8z"></path>
    <path d="M1881.8,90.2c-16.2,0-29.4,13.2-29.4,29.4s13.2,29.4,29.4,29.4c16.2,0,29.4-13.2,29.4-29.4 S1898,90.2,1881.8,90.2z M1881.8,143.3c-13.1,0-23.7-10.6-23.7-23.7s10.6-23.7,23.7-23.7c13.1,0,23.7,10.6,23.7,23.7 S1894.9,143.3,1881.8,143.3z"></path>
</svg>
